<svg width="512" height="512" viewBox="0 0 512 512" fill="none" xmlns="http://www.w3.org/2000/svg">
  <rect width="512" height="512" rx="64" fill="url(#paint0_linear)"/>
  <path d="M442.363 376.853C442.363 394.526 428.036 408.853 410.363 408.853L109.363 408.853C91.6902 408.853 77.3633 394.526 77.3633 376.853V363.081C77.3633 345.407 91.6902 331.081 109.363 331.081L347.629 331.081C365.302 331.081 379.629 316.754 379.629 299.081L379.629 212.625C379.629 194.951 365.302 180.625 347.629 180.625L109.363 180.625C91.6902 180.625 77.3633 166.298 77.3633 148.625V134.853C77.3633 117.179 91.6902 102.853 109.363 102.853L410.363 102.853C428.036 102.853 442.363 117.179 442.363 134.853L442.363 376.853Z" fill="white"/>
  <path d="M201.412 241.058C187.817 246.359 187.833 265.602 201.436 270.881L356.727 331.145V390.546L122.857 289.962C111.111 284.91 103.5 273.351 103.5 260.565V251.449C103.5 238.564 111.228 226.936 123.108 221.946L356.727 123.818V180.5L201.412 241.058ZM356.727 180.5L109.454 180.5C91.7807 180.5 77.4538 166.173 77.4538 148.5V134.762C77.4538 117.089 91.7807 102.762 109.454 102.762L356.727 102.762V180.5ZM77.4538 363.145C77.4538 345.471 91.7807 331.145 109.454 331.145L356.727 331.145V409L109.454 409C91.7807 409 77.4538 394.673 77.4538 377V363.145Z" fill="white"/>
  <defs>
    <linearGradient id="paint0_linear" x1="512" y1="512" x2="0" y2="0" gradientUnits="userSpaceOnUse">
      <stop stop-color="#5BDD12"/>
      <stop offset="1" stop-color="#2D8A06"/>
    </linearGradient>
  </defs>
</svg>
