<svg width="2206" height="512" viewBox="0 0 2206 512" fill="none" xmlns="http://www.w3.org/2000/svg">
<rect y="512" width="512" height="512" rx="64" transform="rotate(-90 0 512)" fill="url(#paint0_linear_87_150)"/>
<path d="M442.363 376.853C442.363 394.526 428.036 408.853 410.363 408.853L109.363 408.853C91.6902 408.853 77.3633 394.526 77.3633 376.853V363.081C77.3633 345.407 91.6902 331.081 109.363 331.081L347.629 331.081C365.302 331.081 379.629 316.754 379.629 299.081L379.629 212.625C379.629 194.951 365.302 180.625 347.629 180.625L109.363 180.625C91.6902 180.625 77.3633 166.298 77.3633 148.625V134.853C77.3633 117.179 91.6902 102.853 109.363 102.853L410.363 102.853C428.036 102.853 442.363 117.179 442.363 134.853L442.363 376.853Z" fill="white"/>
<path d="M201.412 241.058C187.817 246.359 187.833 265.602 201.436 270.881L356.727 331.145V390.546L122.857 289.962C111.111 284.91 103.5 273.351 103.5 260.565V251.449C103.5 238.564 111.228 226.936 123.108 221.946L356.727 123.818V180.5L201.412 241.058ZM356.727 180.5L109.454 180.5C91.7807 180.5 77.4538 166.173 77.4538 148.5V134.762C77.4538 117.089 91.7807 102.762 109.454 102.762L356.727 102.762V180.5ZM77.4538 363.145C77.4538 345.471 91.7807 331.145 109.454 331.145L356.727 331.145V409L109.454 409C91.7807 409 77.4538 394.673 77.4538 377V363.145Z" fill="white"/>
<path d="M808.625 160V352H757.25V201.25H692.375V352H641V160H808.625ZM842.727 406V208H894.102V233.125H895.227C897.102 228.25 899.852 223.781 903.477 219.719C907.102 215.594 911.602 212.312 916.977 209.875C922.352 207.375 928.602 206.125 935.727 206.125C945.227 206.125 954.258 208.656 962.82 213.719C971.445 218.781 978.445 226.75 983.82 237.625C989.258 248.5 991.977 262.625 991.977 280C991.977 296.625 989.383 310.406 984.195 321.344C979.07 332.281 972.195 340.437 963.57 345.812C955.008 351.188 945.602 353.875 935.352 353.875C928.602 353.875 922.57 352.781 917.258 350.594C912.008 348.344 907.508 345.312 903.758 341.5C900.07 337.625 897.227 333.25 895.227 328.375H894.477V406H842.727ZM893.352 280C893.352 287 894.258 293.062 896.07 298.187C897.945 303.25 900.57 307.187 903.945 310C907.383 312.75 911.477 314.125 916.227 314.125C920.977 314.125 925.008 312.781 928.32 310.094C931.695 307.344 934.258 303.437 936.008 298.375C937.82 293.25 938.727 287.125 938.727 280C938.727 272.875 937.82 266.781 936.008 261.719C934.258 256.594 931.695 252.687 928.32 250C925.008 247.25 920.977 245.875 916.227 245.875C911.477 245.875 907.383 247.25 903.945 250C900.57 252.687 897.945 256.594 896.07 261.719C894.258 266.781 893.352 272.875 893.352 280ZM1083.03 354.625C1067.41 354.625 1054.03 351.531 1042.91 345.344C1031.78 339.094 1023.25 330.406 1017.31 319.281C1011.38 308.094 1008.41 295.125 1008.41 280.375C1008.41 265.625 1011.38 252.687 1017.31 241.562C1023.25 230.375 1031.78 221.687 1042.91 215.5C1054.03 209.25 1067.41 206.125 1083.03 206.125C1098.66 206.125 1112.03 209.25 1123.16 215.5C1134.28 221.687 1142.81 230.375 1148.75 241.562C1154.69 252.687 1157.66 265.625 1157.66 280.375C1157.66 295.125 1154.69 308.094 1148.75 319.281C1142.81 330.406 1134.28 339.094 1123.16 345.344C1112.03 351.531 1098.66 354.625 1083.03 354.625ZM1083.41 316.375C1087.78 316.375 1091.56 314.906 1094.75 311.969C1097.94 309.031 1100.41 304.844 1102.16 299.406C1103.91 293.969 1104.78 287.5 1104.78 280C1104.78 272.437 1103.91 265.969 1102.16 260.594C1100.41 255.156 1097.94 250.969 1094.75 248.031C1091.56 245.094 1087.78 243.625 1083.41 243.625C1078.78 243.625 1074.81 245.094 1071.5 248.031C1068.19 250.969 1065.66 255.156 1063.91 260.594C1062.16 265.969 1061.28 272.437 1061.28 280C1061.28 287.5 1062.16 293.969 1063.91 299.406C1065.66 304.844 1068.19 309.031 1071.5 311.969C1074.81 314.906 1078.78 316.375 1083.41 316.375ZM1177.91 160H1242.78L1287.41 268.75H1289.66L1334.28 160H1399.16V352H1348.16V241H1346.66L1303.91 350.5H1273.16L1230.41 240.25H1228.91V352H1177.91V160ZM1464.73 354.25C1455.55 354.25 1447.42 352.75 1440.36 349.75C1433.36 346.687 1427.86 342.062 1423.86 335.875C1419.86 329.687 1417.86 321.812 1417.86 312.25C1417.86 304.375 1419.2 297.656 1421.89 292.094C1424.58 286.469 1428.33 281.875 1433.14 278.313C1437.95 274.75 1443.55 272.031 1449.92 270.156C1456.36 268.281 1463.3 267.062 1470.73 266.5C1478.8 265.875 1485.27 265.125 1490.14 264.25C1495.08 263.312 1498.64 262.031 1500.83 260.406C1503.02 258.719 1504.11 256.5 1504.11 253.75V253.375C1504.11 249.625 1502.67 246.75 1499.8 244.75C1496.92 242.75 1493.23 241.75 1488.73 241.75C1483.8 241.75 1479.77 242.844 1476.64 245.031C1473.58 247.156 1471.73 250.437 1471.11 254.875H1423.48C1424.11 246.125 1426.89 238.062 1431.83 230.687C1436.83 223.25 1444.11 217.313 1453.67 212.875C1463.23 208.375 1475.17 206.125 1489.48 206.125C1499.8 206.125 1509.05 207.344 1517.23 209.781C1525.42 212.156 1532.39 215.5 1538.14 219.812C1543.89 224.062 1548.27 229.062 1551.27 234.812C1554.33 240.5 1555.86 246.687 1555.86 253.375V352H1507.48V331.75H1506.36C1503.48 337.125 1499.98 341.469 1495.86 344.781C1491.8 348.094 1487.14 350.5 1481.89 352C1476.7 353.5 1470.98 354.25 1464.73 354.25ZM1481.61 321.625C1485.55 321.625 1489.23 320.812 1492.67 319.187C1496.17 317.562 1499.02 315.219 1501.2 312.156C1503.39 309.094 1504.48 305.375 1504.48 301V289C1503.11 289.562 1501.64 290.094 1500.08 290.594C1498.58 291.094 1496.95 291.562 1495.2 292C1493.52 292.437 1491.7 292.844 1489.77 293.219C1487.89 293.594 1485.92 293.937 1483.86 294.25C1479.86 294.875 1476.58 295.906 1474.02 297.344C1471.52 298.719 1469.64 300.438 1468.39 302.5C1467.2 304.5 1466.61 306.75 1466.61 309.25C1466.61 313.25 1468.02 316.312 1470.83 318.437C1473.64 320.562 1477.23 321.625 1481.61 321.625ZM1649.96 354.625C1634.34 354.625 1620.96 351.531 1609.84 345.344C1598.71 339.094 1590.18 330.406 1584.24 319.281C1578.3 308.094 1575.34 295.125 1575.34 280.375C1575.34 265.625 1578.3 252.687 1584.24 241.562C1590.18 230.375 1598.71 221.687 1609.84 215.5C1620.96 209.25 1634.34 206.125 1649.96 206.125C1664.09 206.125 1676.3 208.688 1686.62 213.812C1696.99 218.875 1705.02 226.062 1710.71 235.375C1716.4 244.625 1719.27 255.5 1719.34 268H1671.34C1670.65 260.437 1668.46 254.687 1664.77 250.75C1661.15 246.75 1656.46 244.75 1650.71 244.75C1646.21 244.75 1642.27 246.062 1638.9 248.687C1635.52 251.25 1632.9 255.156 1631.02 260.406C1629.15 265.594 1628.21 272.125 1628.21 280C1628.21 287.875 1629.15 294.437 1631.02 299.687C1632.9 304.875 1635.52 308.781 1638.9 311.406C1642.27 313.969 1646.21 315.25 1650.71 315.25C1654.52 315.25 1657.9 314.375 1660.84 312.625C1663.77 310.812 1666.15 308.187 1667.96 304.75C1669.84 301.25 1670.96 297 1671.34 292H1719.34C1719.15 304.687 1716.24 315.75 1710.62 325.188C1704.99 334.562 1697.02 341.812 1686.71 346.937C1676.46 352.062 1664.21 354.625 1649.96 354.625ZM1732.02 246.625V208H1871.52V246.625H1825.77V352H1777.02V246.625H1732.02ZM1956.13 354.625C1940.75 354.625 1927.5 351.687 1916.38 345.812C1905.31 339.875 1896.78 331.375 1890.78 320.312C1884.84 309.187 1881.88 295.875 1881.88 280.375C1881.88 265.5 1884.88 252.5 1890.87 241.375C1896.88 230.25 1905.34 221.594 1916.28 215.406C1927.22 209.219 1940.13 206.125 1955 206.125C1965.88 206.125 1975.72 207.813 1984.53 211.187C1993.34 214.562 2000.88 219.469 2007.13 225.906C2013.38 232.281 2018.19 240.031 2021.56 249.156C2024.94 258.281 2026.62 268.562 2026.62 280V292H1898V263.5H1979C1978.94 259.375 1977.87 255.75 1975.81 252.625C1973.81 249.437 1971.09 246.969 1967.66 245.219C1964.28 243.406 1960.44 242.5 1956.13 242.5C1951.94 242.5 1948.09 243.406 1944.59 245.219C1941.09 246.969 1938.28 249.406 1936.16 252.531C1934.09 255.656 1933 259.312 1932.88 263.5V294.25C1932.88 298.875 1933.84 303 1935.78 306.625C1937.72 310.25 1940.5 313.094 1944.12 315.156C1947.75 317.219 1952.13 318.25 1957.25 318.25C1960.81 318.25 1964.06 317.75 1967 316.75C1970 315.75 1972.56 314.312 1974.69 312.438C1976.81 310.5 1978.38 308.187 1979.38 305.5H2026.62C2025 315.5 2021.16 324.187 2015.09 331.562C2009.03 338.875 2001 344.563 1991 348.625C1981.06 352.625 1969.44 354.625 1956.13 354.625ZM2047.74 406V208H2099.12V233.125H2100.24C2102.12 228.25 2104.87 223.781 2108.49 219.719C2112.12 215.594 2116.62 212.312 2121.99 209.875C2127.37 207.375 2133.62 206.125 2140.74 206.125C2150.24 206.125 2159.27 208.656 2167.84 213.719C2176.46 218.781 2183.46 226.75 2188.84 237.625C2194.27 248.5 2196.99 262.625 2196.99 280C2196.99 296.625 2194.4 310.406 2189.21 321.344C2184.09 332.281 2177.21 340.437 2168.59 345.812C2160.02 351.188 2150.62 353.875 2140.37 353.875C2133.62 353.875 2127.59 352.781 2122.27 350.594C2117.02 348.344 2112.52 345.312 2108.77 341.5C2105.09 337.625 2102.24 333.25 2100.24 328.375H2099.49V406H2047.74ZM2098.37 280C2098.37 287 2099.27 293.062 2101.09 298.187C2102.96 303.25 2105.59 307.187 2108.96 310C2112.4 312.75 2116.49 314.125 2121.24 314.125C2125.99 314.125 2130.02 312.781 2133.34 310.094C2136.71 307.344 2139.27 303.437 2141.02 298.375C2142.84 293.25 2143.74 287.125 2143.74 280C2143.74 272.875 2142.84 266.781 2141.02 261.719C2139.27 256.594 2136.71 252.687 2133.34 250C2130.02 247.25 2125.99 245.875 2121.24 245.875C2116.49 245.875 2112.4 247.25 2108.96 250C2105.59 252.687 2102.96 256.594 2101.09 261.719C2099.27 266.781 2098.37 272.875 2098.37 280Z" fill="white"/>
<defs>
<linearGradient id="paint0_linear_87_150" x1="512" y1="1024" x2="0" y2="512" gradientUnits="userSpaceOnUse">
<stop stop-color="#5BDD12"/>
<stop offset="1" stop-color="#2D8A06"/>
</linearGradient>
</defs>
</svg>
